Coordinates
version=1
nRows=20
nColumns=34
inDegrees=yes

Units are S.I. units (second, meters, Newtons, ...)
If the header above contains a line with 'inDegrees', this indicates whether rotational values are in degrees (yes) or radians (no).

endheader
time	pelvis_tilt	pelvis_list	pelvis_rotation	pelvis_tx	pelvis_ty	pelvis_tz	hip_flexion_r	hip_adduction_r	hip_rotation_r	knee_angle_r	ankle_angle_r	subtalar_angle_r	mtp_angle_r	hip_flexion_l	hip_adduction_l	hip_rotation_l	knee_angle_l	ankle_angle_l	subtalar_angle_l	mtp_angle_l	lumbar_extension	lumbar_bending	lumbar_rotation	arm_flex_r	arm_add_r	arm_rot_r	elbow_flex_r	pro_sup_r	arm_flex_l	arm_add_l	arm_rot_l	elbow_flex_l	pro_sup_l
      1.00000000	      0.27728312	     -0.15820330	      4.25973182	     -0.71194815	      0.91725623	      0.27086244	     -8.71487781	      5.28438499	     -2.35400840	     -4.47777065	      9.88530043	     -0.34295441	      2.85397295	     23.65542313	      1.80348926	     -0.77944159	    -25.82359242	      2.31566135	    -10.29473139	     13.64246329	     -6.96288902	      1.84782879	      1.54151071	      1.28124249	    -22.35864080	      9.43438335	     41.79545552	     90.00000000	     -4.09534297	    -15.96125670	     19.97173034	     18.54261168	     90.00000000
      1.01000000	      0.43736220	     -0.07889235	      4.31478750	     -0.69956802	      0.91597460	      0.27021015	    -10.08792918	      5.27012236	     -2.48004409	     -3.86163188	     10.11829515	     -0.24474487	      2.93397749	     23.52837572	      1.97626701	     -0.91528222	    -22.22555849	      2.61782649	     -9.74990629	     13.59234865	     -7.21678532	      1.78372161	      1.68924657	      1.72586583	    -22.61563908	      9.40352297	     42.58510116	     90.00000000	     -4.20552397	    -15.88506236	     19.52826630	     17.87212616	     90.00000000
      1.02000000	      0.37300743	     -0.09124046	      4.40236385	     -0.68718197	      0.91411529	      0.26959720	    -11.13271735	      5.35534577	     -2.59760015	     -3.39183420	     10.40026667	     -0.14798453	      3.06797204	     23.63911755	      2.05182442	     -1.06927156	    -18.73371193	      2.82486428	     -8.94792064	     13.51366665	     -7.20137748	      1.79954213	      1.78817615	      2.09184769	    -22.85731175	      9.34773201	     43.36848520	     90.00000000	     -4.43209010	    -15.87090484	     19.20696497	     17.60861681	     90.00000000
      1.03000000	      0.50035886	     -0.07141382	      4.46565442	     -0.67464470	      0.91260114	      0.26881928	    -12.28979016	      5.39139813	     -2.80070827	     -3.14052062	     10.69827310	      0.06518005	      3.26469389	     23.42820242	      2.16142985	     -1.25561016	    -15.24670718	      2.83724192	     -8.01466078	     13.36862121	     -7.42406294	      1.81091189	      1.91168073	      2.41840100	    -23.11429182	      9.24812376	     44.22622664	     90.00000000	     -4.57510524	    -15.81262443	     18.83066038	     17.31280124	     90.00000000
      1.04000000	      0.62820606	     -0.14631320	      4.54564327	     -0.66209065	      0.91099932	      0.26805978	    -13.39475668	      5.52012827	     -2.92530133	     -2.95630320	     10.90599924	      0.30847071	      3.49827620	     23.21560456	      2.18836965	     -1.42625866	    -12.00481658	      2.90023561	     -7.02648505	     13.20441355	     -7.62316567	      1.91693917	      1.99190592	      2.75809293	    -23.33305089	      9.10115731	     44.94791116	     90.00000000	     -4.70733525	    -15.72865321	     18.53329768	     17.01689110	     90.00000000
      1.05000000	      0.61511932	     -0.23627429	      4.61193945	     -0.64943649	      0.90905767	      0.26706004	    -14.28603177	      5.61649571	     -2.91463471	     -2.93912146	     11.19972444	      0.52544388	      3.79264862	     23.15376541	      2.22563136	     -1.60788952	     -9.04252058	      2.81653852	     -5.86183280	     12.96002475	     -7.64722166	      2.05025117	      2.05562702	      3.01970445	    -23.57962212	      9.00894561	     45.62532493	     90.00000000	     -4.83266705	    -15.61705702	     18.18565293	     16.77620340	     90.00000000
      1.06000000	      0.36719795	     -0.44197602	      4.73642537	     -0.63673677	      0.90672028	      0.26582500	    -14.83650498	      5.80607447	     -2.79153674	     -3.07938059	     11.45557969	      0.60918549	      3.93333160	     23.37358563	      2.23191153	     -1.58555720	     -6.44862820	      2.78954142	     -5.05137622	     12.90773076	     -7.36466162	      2.30661320	      2.03343278	      3.27863374	    -23.80417845	      8.89411925	     46.05820724	     90.00000000	     -5.05220446	    -15.49509981	     18.01164881	     16.71085227	     90.00000000
      1.07000000	      0.45245381	     -0.43559208	      4.67571144	     -0.62365328	      0.90498631	      0.26495260	    -15.73987538	      5.75211065	     -2.60100023	     -3.30029736	     11.71194143	      0.83024377	      4.44899918	     23.19051941	      2.31006344	     -2.47464895	     -4.25097352	      2.88499738	     -2.84806130	     12.79276260	     -7.48745852	      2.31289165	      2.22986297	      3.31048423	    -24.01518186	      8.67107305	     46.86263172	     90.00000000	     -5.03644876	    -15.33616227	     17.67324046	     16.22089985	     90.00000000
      1.08000000	      0.19725851	     -0.61293517	      4.78061415	     -0.61065275	      0.90279343	      0.26351162	    -16.16658505	      5.88291566	     -2.41965410	     -3.68593170	     11.85129838	      0.84995104	      4.58446692	     23.37326508	      2.39018432	     -2.52648148	     -2.46748991	      2.70748718	     -1.89732316	     12.77853031	     -7.15828980	      2.51260400	      2.20830748	      3.41427913	    -24.21200896	      8.55242305	     47.17350136	     90.00000000	     -5.20100344	    -15.17259490	     17.55835896	     16.18317974	     90.00000000
      1.09000000	      0.15084200	     -0.69377176	      4.72347694	     -0.59721683	      0.90101842	      0.26235338	    -16.78577265	      5.87770314	     -2.21297314	     -4.17136662	     11.78198295	      0.95297210	      5.62868450	     23.51874614	      2.41682369	     -3.81487001	     -1.58538218	      2.73125437	      1.57226814	     12.81196107	     -7.06186883	      2.62924047	      2.42798364	      3.21381003	    -24.36336781	      8.03900222	     47.86428211	     90.00000000	     -5.13772525	    -14.96154163	     17.42592714	     15.66685516	     90.00000000
      1.10000000	      0.00429584	     -0.76552662	      4.68671552	     -0.58378593	      0.89930946	      0.26117952	    -17.19065264	      5.85673057	     -1.98285603	     -4.85488884	     11.70395024	      1.07237947	      6.49201912	     23.81779881	      2.49485821	     -4.33733809	     -1.34650500	      2.67187491	      3.22131995	     12.66402568	     -6.84334430	      2.68697822	      2.53761498	      3.11344734	    -24.44391579	      7.80093646	     48.18183509	     90.00000000	     -5.10260312	    -14.78425039	     17.40418979	     15.26554195	     90.00000000
      1.11000000	     -0.06886471	     -0.69630346	      4.69626554	     -0.57003325	      0.89794268	      0.25981625	    -17.69868652	      5.69197486	     -1.82998255	     -5.51571779	     11.56190704	      1.18820651	      6.75732058	     23.96731115	      2.74117863	     -4.20241800	     -1.59040684	      2.48862378	      3.93378167	     12.63538559	     -6.66519194	      2.60782149	      2.52386464	      3.01092914	    -24.45860378	      7.62554614	     48.34924066	     90.00000000	     -5.21893102	    -14.65415346	     17.30210674	     15.24904142	     90.00000000
      1.12000000	     -0.06535819	     -0.60423373	      4.65014988	     -0.55616257	      0.89675969	      0.25878327	    -18.15530498	      5.49785067	     -1.82539356	     -6.43121991	     11.35429643	      1.54926305	      7.33156579	     24.23817978	      2.92637209	     -4.41836427	     -2.78236814	      2.63033651	      4.60277447	     12.62876852	     -6.62129860	      2.43101288	      2.61417921	      2.81100688	    -24.44260347	      7.26348258	     48.43932283	     90.00000000	     -5.14460552	    -14.55772107	     17.24211237	     14.83794533	     90.00000000
      1.13000000	     -0.06000568	     -0.57933322	      4.85940113	     -0.54185830	      0.89553441	      0.25735611	    -18.58492724	      5.43659630	     -2.10211857	     -7.41507942	     11.01739863	      1.99594521	      8.10164856	     24.52508495	      3.15098806	     -4.05393725	     -4.48901522	      2.72584170	      5.02431369	     12.47051017	     -6.49732659	      2.36941732	      2.48284272	      2.42693276	    -24.34576941	      6.71545463	     48.57539306	     90.00000000	     -5.11993294	    -14.49081945	     17.44616162	     14.62288268	     90.00000000
      1.14000000	      0.08836921	     -0.24968265	      4.89512278	     -0.52701212	      0.89455403	      0.25602849	    -19.11528003	      4.99271148	     -2.53975356	     -8.57904400	     10.34564090	      2.72339114	     11.13907172	     24.44316201	      3.63454474	     -3.72023770	     -6.30945935	      2.83002444	      4.62795044	     11.48979869	     -6.51087122	      1.98027384	      2.67509550	      1.68144966	    -24.23406657	      5.84886562	     48.97746665	     90.00000000	     -5.00462393	    -14.53865729	     18.90279411	     14.49964679	     90.00000000
      1.15000000	      0.06337116	     -0.16287807	      4.96288349	     -0.51201045	      0.89333236	      0.25474669	    -19.42997342	      4.82071476	     -2.65830418	     -9.73158577	      9.71155630	      2.98971709	     11.43804734	     24.52578098	      3.90009359	     -3.16061795	     -8.32515572	      2.66794603	      4.41665327	     11.33786570	     -6.25896891	      1.80455556	      2.61473588	      1.19499076	    -24.11815848	      5.57424584	     48.87167326	     90.00000000	     -5.12306398	    -14.49297705	     18.60280818	     14.51659214	     90.00000000
      1.16000000	      0.06790686	      0.32814325	      5.13655949	     -0.49702266	      0.89254171	      0.25312109	    -19.56005222	      4.20633254	     -3.31021029	    -11.27959673	      8.47483814	      3.50851648	     16.33056500	     24.17374989	      4.69376666	     -2.51896344	     -9.17011923	     -0.33363239	      3.50731816	      6.32886054	     -6.07639899	      1.19768730	      2.53197110	      0.57712743	    -23.85312849	      4.95685954	     48.67146488	     90.00000000	     -5.02689760	    -14.52176770	     19.24716841	     14.30641218	     90.00000000
      1.17000000	      0.03648422	      0.75346919	      5.31186038	     -0.48194041	      0.89206011	      0.25178590	    -19.66525090	      3.71175277	     -3.49215166	    -12.78959678	      7.43642407	      3.74520793	     16.32738663	     24.02588185	      5.28383872	     -2.59863668	     -9.88674369	     -2.63041154	      3.16426921	      5.93454847	     -5.83935301	      0.62698177	      2.33229394	      0.03028523	    -23.56790372	      4.73934467	     48.35463845	     90.00000000	     -5.16062165	    -14.61142202	     19.02177631	     14.58075574	     90.00000000
      1.18000000	     -0.08127275	      1.40741422	      5.69414700	     -0.46709243	      0.89174890	      0.24978182	    -19.43190912	      2.97665105	     -3.99659047	    -14.76491548	      6.49120864	      4.13006671	     16.84839757	     24.04238301	      6.23736694	     -1.65846359	    -11.21540787	     -3.92921925	      1.96734476	      6.02780240	     -5.52319802	     -0.18136813	      1.87296702	     -0.37958654	    -23.11594165	      4.28286752	     47.41199259	     90.00000000	     -5.08938103	    -14.63157929	     19.09082565	     14.32965087	     90.00000000
      1.19000000	     -0.40621374	      1.98957822	      6.18108812	     -0.45284624	      0.89153366	      0.24759059	    -18.67769978	      2.31075258	     -4.49293682	    -17.15169207	      4.97080986	      4.56150414	     19.10695141	     24.59483907	      7.16304593	     -0.52593697	    -13.39870186	     -5.25081191	     -0.30989349	      6.08574985	     -5.06251423	     -0.89536299	      1.33609518	     -0.78330249	    -22.80401264	      4.23926110	     46.53618741	     90.00000000	     -4.95892343	    -14.65023613	     19.91780853	     14.19520345	     90.00000000
